<svg width="24" height="25" viewBox="0 0 24 25" fill="none" xmlns="http://www.w3.org/2000/svg">
<path d="M8 2.90146V5.90146M16 2.90146V5.90146" stroke="white" stroke-opacity="0.73" stroke-width="1.5" stroke-miterlimit="10" stroke-linecap="round" stroke-linejoin="round"/>
<path d="M22 22.9015L21 21.9015M18.2 22.3015C19.0487 22.3015 19.8626 21.9643 20.4627 21.3642C21.0629 20.7641 21.4 19.9502 21.4 19.1015C21.4 18.2528 21.0629 17.4388 20.4627 16.8387C19.8626 16.2386 19.0487 15.9015 18.2 15.9015C17.3513 15.9015 16.5374 16.2386 15.9373 16.8387C15.3371 17.4388 15 18.2528 15 19.1015C15 19.9502 15.3371 20.7641 15.9373 21.3642C16.5374 21.9643 17.3513 22.3015 18.2 22.3015Z" stroke="white" stroke-opacity="0.73" stroke-width="1.5" stroke-linecap="round" stroke-linejoin="round"/>
<path d="M3.5 9.99146H20.5M13.37 22.9015H8C4.5 22.9015 3 20.9015 3 17.9015V9.40146C3 6.40146 4.5 4.40146 8 4.40146H16C19.5 4.40146 21 6.40146 21 9.40146V13.9015" stroke="white" stroke-opacity="0.73" stroke-width="1.5" stroke-miterlimit="10" stroke-linecap="round" stroke-linejoin="round"/>
<path d="M11.995 14.6015H12.005M8.294 14.6015H8.304M8.294 17.6015H8.304" stroke="white" stroke-opacity="0.73" stroke-width="2" stroke-linecap="round" stroke-linejoin="round"/>
</svg>
