<svg width="24" height="25" viewBox="0 0 24 25" fill="none" xmlns="http://www.w3.org/2000/svg">
<path d="M16.97 15.3415C18.34 15.5715 19.85 15.3315 20.91 14.6215C22.32 13.6815 22.32 12.1415 20.91 11.2015C19.84 10.4915 18.31 10.2515 16.94 10.4915M7 15.3415C5.63 15.5715 4.12 15.3315 3.06 14.6215C1.65 13.6815 1.65 12.1415 3.06 11.2015C4.13 10.4915 5.66 10.2515 7.03 10.4915M18 8.06146C17.9371 8.05145 17.8729 8.05145 17.81 8.06146C17.1426 8.03732 16.5108 7.75467 16.048 7.27322C15.5852 6.79177 15.3277 6.14926 15.33 5.48146C15.33 4.05146 16.48 2.90146 17.91 2.90146C18.5943 2.90146 19.2505 3.17328 19.7343 3.65712C20.2182 4.14097 20.49 4.7972 20.49 5.48146C20.4882 6.14973 20.228 6.79141 19.7639 7.27227C19.2998 7.75313 18.6678 8.03591 18 8.06146V8.06146ZM5.97 8.06146C6.03 8.05146 6.1 8.05146 6.16 8.06146C6.82737 8.03732 7.45921 7.75467 7.922 7.27322C8.38478 6.79177 8.64226 6.14926 8.64 5.48146C8.64 4.05146 7.49 2.90146 6.06 2.90146C5.37574 2.90146 4.71951 3.17328 4.23567 3.65712C3.75182 4.14097 3.48 4.7972 3.48 5.48146C3.49 6.88146 4.59 8.01146 5.97 8.06146ZM12 15.5315C11.9371 15.5215 11.8729 15.5215 11.81 15.5315C11.1426 15.5073 10.5108 15.2247 10.048 14.7432C9.58522 14.2618 9.32775 13.6193 9.33 12.9515C9.33 11.5215 10.48 10.3715 11.91 10.3715C12.5943 10.3715 13.2505 10.6433 13.7343 11.1271C14.2182 11.611 14.49 12.2672 14.49 12.9515C14.48 14.3515 13.38 15.4915 12 15.5315ZM9.09 18.6815C7.68 19.6215 7.68 21.1615 9.09 22.1015C10.69 23.1715 13.31 23.1715 14.91 22.1015C16.32 21.1615 16.32 19.6215 14.91 18.6815C13.32 17.6215 10.69 17.6215 9.09 18.6815Z" stroke="white" stroke-opacity="0.73" stroke-width="1.5" stroke-linecap="round" stroke-linejoin="round"/>
</svg>
