<svg width="28" height="28" viewBox="0 0 28 28" fill="none" xmlns="http://www.w3.org/2000/svg">
<g clip-path="url(#clip0_9_31)">
<path d="M4.11734 13.7603L5.8083 9.81402C7.26241 6.40473 9.15072 5.25517 12.1712 6.0924C12.6567 6.21861 13.1729 6.40101 13.7197 6.6396L15.3047 7.32526C19.2395 9.02433 20.1522 11.277 18.4612 15.2234L16.7685 19.1795C16.4239 19.9819 16.0591 20.669 15.6577 21.2176C14.0853 23.3977 12.0126 23.6922 8.86056 22.3343L7.28365 21.6602C3.32748 19.9675 2.42638 17.7067 4.11734 13.7603V13.7603Z" stroke="white" stroke-opacity="0.72" stroke-width="1.5" stroke-linecap="round" stroke-linejoin="round"/>
<path d="M12.1712 6.0924C12.8547 5.78644 13.6837 5.5772 14.6731 5.43688L16.3194 5.19914C20.4513 4.62797 22.3238 6.04464 22.9048 10.1783L23.4794 14.2906C24.0506 18.4225 22.642 20.3066 18.5101 20.8777L16.8638 21.1155C16.4374 21.1723 16.0343 21.2129 15.6577 21.2176C16.0591 20.669 16.4239 19.9819 16.7685 19.1795L18.4612 15.2234C20.1522 11.277 19.2395 9.02433 15.3047 7.32526L13.7197 6.6396C13.1729 6.40102 12.6567 6.21861 12.1712 6.0924V6.0924Z" stroke="white" stroke-opacity="0.72" stroke-width="1.5" stroke-linecap="round" stroke-linejoin="round"/>
</g>
<defs>
<clipPath id="clip0_9_31">
<rect width="24" height="24" fill="white" transform="translate(23.6354 27.8029) rotate(-170)"/>
</clipPath>
</defs>
</svg>
