<svg width="25" height="25" viewBox="0 0 25 25" fill="none" xmlns="http://www.w3.org/2000/svg">
<path d="M18.7829 11.6915V15.6915C18.7829 15.9515 18.7729 16.2015 18.7429 16.4415C18.5129 19.1415 16.9229 20.4815 13.9929 20.4815H13.5929C13.3429 20.4815 13.1029 20.6015 12.9529 20.8015L11.7529 22.4015C11.2229 23.1115 10.3629 23.1115 9.83295 22.4015L8.63295 20.8015C8.5529 20.7082 8.45507 20.6319 8.34518 20.577C8.23529 20.522 8.11554 20.4896 7.99295 20.4815H7.59295C4.40295 20.4815 2.80295 19.6915 2.80295 15.6915V11.6915C2.80295 8.76146 4.15295 7.17146 6.84295 6.94146C7.08295 6.91146 7.33295 6.90146 7.59295 6.90146H13.9929C17.1829 6.90146 18.7829 8.50146 18.7829 11.6915Z" stroke="white" stroke-opacity="0.73" stroke-width="1.5" stroke-miterlimit="10" stroke-linecap="round" stroke-linejoin="round"/>
<path d="M22.7829 7.69146V11.6915C22.7829 14.6315 21.4329 16.2115 18.7429 16.4415C18.7729 16.2015 18.7829 15.9515 18.7829 15.6915V11.6915C18.7829 8.50146 17.1829 6.90146 13.9929 6.90146H7.59295C7.33295 6.90146 7.08295 6.91146 6.84295 6.94146C7.07295 4.25146 8.66295 2.90146 11.5929 2.90146H17.9929C21.1829 2.90146 22.7829 4.50146 22.7829 7.69146V7.69146Z" stroke="white" stroke-opacity="0.73" stroke-width="1.5" stroke-miterlimit="10" stroke-linecap="round" stroke-linejoin="round"/>
<path d="M14.298 14.1515H14.308M10.798 14.1515H10.808M7.29795 14.1515H7.30795" stroke="white" stroke-opacity="0.73" stroke-width="2" stroke-linecap="round" stroke-linejoin="round"/>
</svg>
