<svg width="25" height="25" viewBox="0 0 25 25" fill="none" xmlns="http://www.w3.org/2000/svg">
<path d="M12.9629 11.7714C12.8629 11.7614 12.7429 11.7614 12.6329 11.7714C11.4852 11.7325 10.3976 11.2483 9.60058 10.4214C8.80357 9.59453 8.35969 8.4899 8.36295 7.34145C8.36295 4.89145 10.3429 2.90145 12.8029 2.90145C13.3854 2.89094 13.9641 2.99525 14.5062 3.20843C15.0483 3.4216 15.5431 3.73946 15.9624 4.14386C16.3817 4.54826 16.7172 5.03128 16.9497 5.56534C17.1823 6.09939 17.3074 6.67404 17.3179 7.25645C17.3285 7.83886 17.2241 8.41764 17.011 8.95974C16.7978 9.50184 16.4799 9.99664 16.0755 10.4159C15.6711 10.8352 15.1881 11.1707 14.6541 11.4032C14.12 11.6358 13.5454 11.7609 12.9629 11.7714V11.7714ZM7.96295 15.4614C5.54295 17.0814 5.54295 19.7214 7.96295 21.3314C10.7129 23.1714 15.2229 23.1714 17.9729 21.3314C20.393 19.7114 20.393 17.0714 17.9729 15.4614C15.2329 13.6314 10.7229 13.6314 7.96295 15.4614V15.4614Z" stroke="white" stroke-opacity="0.73" stroke-width="1.5" stroke-linecap="round" stroke-linejoin="round"/>
</svg>
